<?xml version="1.0" encoding="utf-8"?>
<!-- Generator: Adobe Illustrator 16.0.0, SVG Export Plug-In . SVG Version: 6.00 Build 0)  -->
<!DOCTYPE svg PUBLIC "-//W3C//DTD SVG 1.1//EN" "http://www.w3.org/Graphics/SVG/1.1/DTD/svg11.dtd">
<svg version="1.1" id="Layer_1" xmlns="http://www.w3.org/2000/svg" xmlns:xlink="http://www.w3.org/1999/xlink" x="0px" y="0px"
	 width="83px" height="83.001px" viewBox="0 0 83 83.001" enable-background="new 0 0 83 83.001" xml:space="preserve">
<path d="M41.501,0C18.617,0,0,18.617,0,41.501c0,22.883,18.617,41.5,41.501,41.5c22.883,0,41.5-18.617,41.5-41.5
	C83,18.617,64.384,0,41.501,0z M41.501,76.867c-19.502,0-35.368-15.865-35.368-35.366c0-19.502,15.866-35.368,35.368-35.368
	c19.5,0,35.366,15.866,35.366,35.368C76.867,61.002,61.001,76.867,41.501,76.867z"/>
<path fill="#232323" d="M20.809,32.391c0.442-1.425,1.106-2.67,1.993-3.736c0.884-1.065,1.999-1.895,3.341-2.49
	c1.342-0.596,2.884-0.892,4.628-0.892c1.328,0,2.594,0.207,3.798,0.622c1.203,0.416,2.262,1.01,3.175,1.786
	c0.913,0.775,1.64,1.729,2.18,2.863c0.54,1.135,0.809,2.407,0.809,3.819c0,1.467-0.235,2.726-0.705,3.777
	c-0.471,1.052-1.093,1.986-1.869,2.803c-0.775,0.816-1.653,1.556-2.635,2.22c-0.983,0.664-1.971,1.321-2.969,1.971
	c-0.996,0.651-1.965,1.351-2.905,2.097c-0.94,0.747-1.771,1.619-2.49,2.615h12.618v5.063H19.563c0-1.687,0.242-3.154,0.727-4.399
	c0.484-1.245,1.141-2.358,1.971-3.342c0.83-0.981,1.805-1.889,2.926-2.718c1.121-0.831,2.303-1.674,3.549-2.532
	c0.636-0.442,1.314-0.892,2.034-1.35c0.719-0.456,1.376-0.961,1.972-1.515c0.594-0.553,1.092-1.176,1.494-1.868
	c0.4-0.691,0.602-1.48,0.602-2.366c0-1.411-0.408-2.511-1.225-3.3c-0.816-0.788-1.861-1.182-3.133-1.182
	c-0.858,0-1.585,0.2-2.18,0.601c-0.596,0.401-1.073,0.928-1.432,1.577c-0.36,0.651-0.616,1.371-0.769,2.159
	c-0.152,0.789-0.228,1.571-0.228,2.345h-5.645C20.172,35.359,20.366,33.816,20.809,32.391z"/>
<path fill="#232323" d="M53.269,37.6c0.719-0.055,1.39-0.214,2.013-0.478c0.622-0.263,1.135-0.643,1.536-1.142
	c0.4-0.498,0.601-1.162,0.601-1.992c0-1.245-0.414-2.199-1.244-2.864s-1.785-0.996-2.863-0.996c-1.496,0-2.623,0.491-3.385,1.474
	c-0.76,0.982-1.127,2.221-1.1,3.715h-5.604c0.056-1.495,0.325-2.857,0.81-4.089s1.163-2.29,2.034-3.176s1.916-1.57,3.134-2.055
	c1.218-0.484,2.574-0.726,4.068-0.726c1.161,0,2.324,0.173,3.486,0.519c1.161,0.346,2.206,0.865,3.134,1.556
	c0.927,0.693,1.681,1.536,2.262,2.532c0.582,0.998,0.871,2.146,0.871,3.446c0,1.411-0.338,2.656-1.017,3.735
	c-0.678,1.079-1.694,1.812-3.051,2.2v0.083c1.604,0.36,2.865,1.135,3.778,2.324c0.912,1.19,1.369,2.615,1.369,4.276
	c0,1.521-0.298,2.878-0.893,4.067c-0.596,1.19-1.39,2.187-2.386,2.988c-0.997,0.803-2.146,1.411-3.445,1.826
	c-1.302,0.416-2.657,0.623-4.067,0.623c-1.634,0-3.122-0.235-4.464-0.705c-1.342-0.471-2.483-1.156-3.424-2.055
	c-0.941-0.899-1.667-1.999-2.18-3.3c-0.512-1.301-0.754-2.795-0.726-4.483h5.604c0.027,0.775,0.151,1.516,0.373,2.222
	c0.222,0.704,0.54,1.314,0.955,1.825c0.415,0.513,0.934,0.921,1.557,1.226c0.623,0.304,1.362,0.456,2.221,0.456
	c1.328,0,2.449-0.408,3.362-1.225c0.913-0.815,1.369-1.93,1.369-3.341c0-1.107-0.215-1.952-0.643-2.532
	c-0.431-0.581-0.976-1.003-1.64-1.267c-0.665-0.263-1.391-0.415-2.18-0.457c-0.788-0.042-0.421-0.062-1.141-0.062V37.6
	C52.992,37.655,52.548,37.655,53.269,37.6z"/>
</svg>
